<mxfile host="app.diagrams.net" modified="2025-01-07T23:01:11.434Z" agent="Mozilla/5.0 (Windows NT 10.0; Win64; x64) AppleWebKit/537.36 (KHTML, like Gecko) Chrome/130.0.0.0 YaBrowser/24.12.0.0 Safari/537.36" etag="QhotasLxEFe9hDnzeKOL" version="24.6.4" type="device">
  <diagram name="Страница — 1" id="5qhATsHARAIzeN7Xyukp">
    <mxGraphModel dx="1386" dy="791" grid="0" gridSize="10" guides="1" tooltips="1" connect="1" arrows="1" fold="1" page="1" pageScale="1" pageWidth="827" pageHeight="1169" math="0" shadow="0">
      <root>
        <mxCell id="0" />
        <mxCell id="1" parent="0" />
        <mxCell id="tzV1FksNfgjxFQ8yxfRa-7" style="edgeStyle=orthogonalEdgeStyle;rounded=0;orthogonalLoop=1;jettySize=auto;html=1;exitX=1;exitY=0.5;exitDx=0;exitDy=0;entryX=0;entryY=0.5;entryDx=0;entryDy=0;endArrow=ERoneToMany;endFill=0;startArrow=ERone;startFill=0;" edge="1" parent="1" source="tzV1FksNfgjxFQ8yxfRa-1" target="tzV1FksNfgjxFQ8yxfRa-6">
          <mxGeometry relative="1" as="geometry" />
        </mxCell>
        <mxCell id="tzV1FksNfgjxFQ8yxfRa-1" value="AppUser" style="swimlane;fontStyle=0;childLayout=stackLayout;horizontal=1;startSize=39;fillColor=none;horizontalStack=0;resizeParent=1;resizeParentMax=0;resizeLast=0;collapsible=1;marginBottom=0;whiteSpace=wrap;html=1;" vertex="1" collapsed="1" parent="1">
          <mxGeometry x="73" y="129" width="135" height="39" as="geometry">
            <mxRectangle x="73" y="129" width="140" height="52" as="alternateBounds" />
          </mxGeometry>
        </mxCell>
        <mxCell id="tzV1FksNfgjxFQ8yxfRa-8" style="edgeStyle=orthogonalEdgeStyle;rounded=0;orthogonalLoop=1;jettySize=auto;html=1;exitX=0;exitY=0.5;exitDx=0;exitDy=0;entryX=1;entryY=0.5;entryDx=0;entryDy=0;endArrow=ERmany;endFill=0;startArrow=ERone;startFill=0;" edge="1" parent="1" source="tzV1FksNfgjxFQ8yxfRa-5" target="tzV1FksNfgjxFQ8yxfRa-6">
          <mxGeometry relative="1" as="geometry" />
        </mxCell>
        <mxCell id="tzV1FksNfgjxFQ8yxfRa-5" value="AppRole" style="swimlane;fontStyle=0;childLayout=stackLayout;horizontal=1;startSize=39;fillColor=none;horizontalStack=0;resizeParent=1;resizeParentMax=0;resizeLast=0;collapsible=1;marginBottom=0;whiteSpace=wrap;html=1;" vertex="1" collapsed="1" parent="1">
          <mxGeometry x="464" y="129" width="135" height="39" as="geometry">
            <mxRectangle x="73" y="129" width="140" height="52" as="alternateBounds" />
          </mxGeometry>
        </mxCell>
        <mxCell id="tzV1FksNfgjxFQ8yxfRa-6" value="AppUserRole" style="swimlane;fontStyle=0;childLayout=stackLayout;horizontal=1;startSize=39;fillColor=none;horizontalStack=0;resizeParent=1;resizeParentMax=0;resizeLast=0;collapsible=1;marginBottom=0;whiteSpace=wrap;html=1;" vertex="1" collapsed="1" parent="1">
          <mxGeometry x="266" y="129" width="135" height="39" as="geometry">
            <mxRectangle x="73" y="129" width="140" height="52" as="alternateBounds" />
          </mxGeometry>
        </mxCell>
        <mxCell id="tzV1FksNfgjxFQ8yxfRa-10" style="edgeStyle=orthogonalEdgeStyle;rounded=0;orthogonalLoop=1;jettySize=auto;html=1;exitX=0.5;exitY=0;exitDx=0;exitDy=0;entryX=0.5;entryY=1;entryDx=0;entryDy=0;endArrow=ERoneToMany;endFill=0;startArrow=ERone;startFill=0;" edge="1" parent="1" source="tzV1FksNfgjxFQ8yxfRa-9" target="tzV1FksNfgjxFQ8yxfRa-1">
          <mxGeometry relative="1" as="geometry" />
        </mxCell>
        <mxCell id="tzV1FksNfgjxFQ8yxfRa-12" style="edgeStyle=orthogonalEdgeStyle;rounded=0;orthogonalLoop=1;jettySize=auto;html=1;exitX=1;exitY=0.5;exitDx=0;exitDy=0;entryX=0;entryY=0.5;entryDx=0;entryDy=0;endArrow=ERmany;endFill=0;startArrow=ERone;startFill=0;" edge="1" parent="1" source="tzV1FksNfgjxFQ8yxfRa-9" target="tzV1FksNfgjxFQ8yxfRa-11">
          <mxGeometry relative="1" as="geometry" />
        </mxCell>
        <mxCell id="tzV1FksNfgjxFQ8yxfRa-14" style="edgeStyle=orthogonalEdgeStyle;rounded=0;orthogonalLoop=1;jettySize=auto;html=1;exitX=0.5;exitY=1;exitDx=0;exitDy=0;entryX=0.5;entryY=0;entryDx=0;entryDy=0;startArrow=ERone;startFill=0;endArrow=ERmany;endFill=0;" edge="1" parent="1" source="tzV1FksNfgjxFQ8yxfRa-9" target="tzV1FksNfgjxFQ8yxfRa-13">
          <mxGeometry relative="1" as="geometry" />
        </mxCell>
        <mxCell id="tzV1FksNfgjxFQ8yxfRa-9" value="Home" style="swimlane;fontStyle=0;childLayout=stackLayout;horizontal=1;startSize=39;fillColor=none;horizontalStack=0;resizeParent=1;resizeParentMax=0;resizeLast=0;collapsible=1;marginBottom=0;whiteSpace=wrap;html=1;" vertex="1" collapsed="1" parent="1">
          <mxGeometry x="73" y="233" width="135" height="39" as="geometry">
            <mxRectangle x="73" y="129" width="140" height="52" as="alternateBounds" />
          </mxGeometry>
        </mxCell>
        <mxCell id="tzV1FksNfgjxFQ8yxfRa-15" style="edgeStyle=orthogonalEdgeStyle;rounded=0;orthogonalLoop=1;jettySize=auto;html=1;exitX=0.5;exitY=1;exitDx=0;exitDy=0;entryX=1;entryY=0.5;entryDx=0;entryDy=0;endArrow=ERmany;endFill=0;startArrow=none;startFill=0;" edge="1" parent="1" source="tzV1FksNfgjxFQ8yxfRa-11" target="tzV1FksNfgjxFQ8yxfRa-13">
          <mxGeometry relative="1" as="geometry" />
        </mxCell>
        <mxCell id="tzV1FksNfgjxFQ8yxfRa-11" value="Room" style="swimlane;fontStyle=0;childLayout=stackLayout;horizontal=1;startSize=39;fillColor=none;horizontalStack=0;resizeParent=1;resizeParentMax=0;resizeLast=0;collapsible=1;marginBottom=0;whiteSpace=wrap;html=1;" vertex="1" collapsed="1" parent="1">
          <mxGeometry x="269" y="233" width="135" height="39" as="geometry">
            <mxRectangle x="73" y="129" width="140" height="52" as="alternateBounds" />
          </mxGeometry>
        </mxCell>
        <mxCell id="tzV1FksNfgjxFQ8yxfRa-13" value="HouseholdDuty" style="swimlane;fontStyle=0;childLayout=stackLayout;horizontal=1;startSize=39;fillColor=none;horizontalStack=0;resizeParent=1;resizeParentMax=0;resizeLast=0;collapsible=1;marginBottom=0;whiteSpace=wrap;html=1;" vertex="1" collapsed="1" parent="1">
          <mxGeometry x="73" y="327" width="135" height="39" as="geometry">
            <mxRectangle x="73" y="129" width="140" height="52" as="alternateBounds" />
          </mxGeometry>
        </mxCell>
      </root>
    </mxGraphModel>
  </diagram>
</mxfile>
